<svg width="568" height="332" xmlns="http://www.w3.org/2000/svg" xmlns:xlink="http://www.w3.org/1999/xlink" overflow="hidden">
<g transform="translate(-356 -194)">
<rect x="357" y="195" width="566" height="330" fill="#FFFFFF"/>

<path id="path1" d="M501.5 489.5 729.5 489.5" stroke="#000000" stroke-width="1.33333" stroke-miterlimit="8" fill="none" fill-rule="evenodd"/>
        <path id="path2" d="M0 0 0.000104987 186.231" stroke="#000000" stroke-width="1.33333" stroke-miterlimit="8" fill="none" fill-rule="evenodd" transform="matrix(1 0 0 -1 501.5 490.731)"/>
        <path id="path3" d="M393.5 304.5 621.5 304.5" stroke="#000000" stroke-width="1.33333" stroke-miterlimit="8" fill="none" fill-rule="evenodd"/>
        <path id="path4" d="M0 0 74.6667 55.3333" stroke="#000000" stroke-width="1.33333" stroke-miterlimit="8" fill="none" fill-rule="evenodd" transform="matrix(1 0 0 -1 503.5 358.833)"/>
        <path id="path5" d="M0 0 0.000104987 30.6357" stroke="#000000" stroke-width="1.33333" stroke-miterlimit="8" fill="none" fill-rule="evenodd" transform="matrix(1 0 0 -1 621.5 335.136)"/>
        <path id="path6" d="M598.5 358.5C598.5 345.798 608.574 335.5 621 335.5 633.426 335.5 643.5 345.798 643.5 358.5 643.5 371.203 633.426 381.5 621 381.5 608.574 381.5 598.5 371.203 598.5 358.5Z" stroke="#000000" stroke-width="1.33333" stroke-miterlimit="8" fill="#FFFFFF" fill-rule="evenodd"/>
        <path id="path7" d="M621.5 380.5 621.5 436.5" stroke="#000000" stroke-width="1.33333" stroke-miterlimit="8" fill="none" fill-rule="evenodd"/>
        <path id="path9" d="M0 0 23.1024 19.5643" stroke="#000000" stroke-width="1.33333" stroke-miterlimit="8" fill="none" fill-rule="evenodd" transform="matrix(-1 0 0 1 643.602 384.5)"/>
        <path id="path10" d="M0 0 23.0667 19.5333" stroke="#000000" stroke-width="1.33333" stroke-miterlimit="8" fill="none" fill-rule="evenodd" transform="matrix(-1 0 0 1 621.567 435.5)"/>
        <path id="path8" d="M597.5 384.5 620.567 404.033" stroke="#000000" stroke-width="1.33333" stroke-miterlimit="8" fill="none" fill-rule="evenodd"/>
        

</g></svg>